<svg width="34" height="48" viewBox="0 0 34 48" fill="none" xmlns="http://www.w3.org/2000/svg">
<path fill-rule="evenodd" clip-rule="evenodd" d="M20.7407 25.702C19.9459 26.1554 19.1665 26.4705 18.4062 26.6464V33.9375H27.0732C25.4101 30.6507 23.0339 27.5404 20.7407 25.702Z" fill="#80D4FF"/>
<path fill-rule="evenodd" clip-rule="evenodd" d="M6.94475 33.9375H15.5937V26.646C14.8356 26.4701 14.0586 26.1555 13.2662 25.7031C10.9785 27.5414 8.60778 30.6512 6.94475 33.9375Z" fill="#80D4FF"/>
<path fill-rule="evenodd" clip-rule="evenodd" d="M29.0808 39.5625C28.9124 38.6542 28.6444 37.7077 28.2978 36.75H5.71879C5.37116 37.7077 5.10163 38.6542 4.93082 39.5625H29.0808Z" fill="#80D4FF"/>
<path fill-rule="evenodd" clip-rule="evenodd" d="M4.93156 8.4375C5.37106 10.7752 6.46063 13.3648 7.86885 15.75H26.149C27.5583 13.3647 28.6467 10.7751 29.0802 8.4375H4.93156Z" fill="#80D4FF"/>
<path fill-rule="evenodd" clip-rule="evenodd" d="M24.2661 18.5625H9.74919C12.1214 21.7047 14.8877 24.0001 17 24.0001C19.1162 24.0002 21.8898 21.7047 24.2661 18.5625Z" fill="#80D4FF"/>
<path fill-rule="evenodd" clip-rule="evenodd" d="M32.1875 0H1.8125C1.03587 0 0.40625 0.629625 0.40625 1.40625V2.8125C0.40625 4.35938 1.67188 5.625 3.21875 5.625H30.7812C32.3281 5.625 33.5938 4.35938 33.5938 2.8125V1.40625C33.5938 0.629625 32.9641 0 32.1875 0Z" fill="#80D4FF"/>
<path fill-rule="evenodd" clip-rule="evenodd" d="M30.7812 42.375H3.21875C1.66972 42.375 0.40625 43.6385 0.40625 45.1875V48H33.5938V45.1875C33.5938 43.6385 32.3304 42.375 30.7812 42.375Z" fill="#80D4FF"/>
</svg>
